<svg xmlns="http://www.w3.org/2000/svg" width="64" height="64" viewBox="0 0 64 64"><rect width="64" height="64" fill="#6268af" rx="15.7" ry="15.7"/><path fill-rule="evenodd" d="M9.6 0h44.8A9.6 9.6 0 0 1 64 9.6v44.8a9.6 9.6 0 0 1-9.6 9.6H9.6A9.6 9.6 0 0 1 0 54.4V9.6A9.6 9.6 0 0 1 9.6 0z"/><path fill="#fff" d="M45.1 51.6c-1.5 1.6-5 2.7-8.2 2.8h-.3c-10.5 0-12.8-7.7-12.8-12.3V29.5h-4.2a.9.9 0 0 1-.9-.9v-5.9a1.5 1.5 0 0 1 1-1.4c5.4-1.9 7.1-6.6 7.4-10.2.1-1 .6-1.4 1.4-1.4h6.2a.9.9 0 0 1 .9.9v10h7.2a.9.9 0 0 1 .9.9v7.1a.9.9 0 0 1-.9.9h-7.3v11.6c0 2.9 1.9 3.7 3.1 3.7a8.7 8.7 0 0 0 2.8-.6 1.9 1.9 0 0 1 1.1-.2.9.9 0 0 1 .6.7l1.9 5.6c.3.4.4.9.1 1.3z"/></svg>