<svg xmlns="http://www.w3.org/2000/svg" width="64" height="64" viewBox="0 0 64 64"><path fill="#010201" d="M20.3 28.7h-7.1v-7.4h6.5l1.8.2a4.3 4.3 0 0 1 1.5.6 2.9 2.9 0 0 1 1.1 1.1 3.7 3.7 0 0 1 .4 1.8 3.3 3.3 0 0 1-1.2 2.9 5.1 5.1 0 0 1-3 .8zm4.2 5.8a4.2 4.2 0 0 1 1.3 3.5 4.3 4.3 0 0 1-.4 2.1 3.4 3.4 0 0 1-1.1 1.3 4.5 4.5 0 0 1-1.6.7l-2 .2h-7.5v-8.9h7.6a5.9 5.9 0 0 1 3.7 1.1z"/><path fill="#010201" d="M54.4 0H9.6A9.6 9.6 0 0 0 0 9.6v44.8A9.6 9.6 0 0 0 9.6 64h44.8a9.6 9.6 0 0 0 9.6-9.6V9.6A9.6 9.6 0 0 0 54.4 0zM39.9 18h12.8v3.1H39.9zm-8 24.5a8.1 8.1 0 0 1-2.5 2.9 11 11 0 0 1-3.6 1.6 15.9 15.9 0 0 1-4.1.5H6.3V15.9h14.9a19.5 19.5 0 0 1 4.1.4 9.2 9.2 0 0 1 3.2 1.3 6.2 6.2 0 0 1 2.1 2.4 8.6 8.6 0 0 1 .7 3.7 7 7 0 0 1-1.1 4 7.9 7.9 0 0 1-3.2 2.6 7.5 7.5 0 0 1 4.4 3 8.8 8.8 0 0 1 1.4 5.1 8.7 8.7 0 0 1-1 4.1zm25.9-4.9H41.2a6.5 6.5 0 0 0 1.5 4.4 5.6 5.6 0 0 0 4.1 1.4 5.6 5.6 0 0 0 3.3-1 4.1 4.1 0 0 0 1.7-2h5.5a10.5 10.5 0 0 1-4.1 5.9 11.9 11.9 0 0 1-6.6 1.8 13.1 13.1 0 0 1-4.9-.9 10.4 10.4 0 0 1-3.7-2.4 11.3 11.3 0 0 1-2.3-3.8 14.1 14.1 0 0 1-.8-4.9 13.5 13.5 0 0 1 .8-4.8 11.3 11.3 0 0 1 2.4-3.8 11.6 11.6 0 0 1 3.7-2.6 12 12 0 0 1 4.8-.9 10.9 10.9 0 0 1 5.1 1.1 10.1 10.1 0 0 1 3.6 3 12.4 12.4 0 0 1 2 4.3 16.3 16.3 0 0 1 .4 5.2zm-11.4-8.9a5.4 5.4 0 0 0-2.5.5 4.9 4.9 0 0 0-1.6 1.3 4.5 4.5 0 0 0-.8 1.6 7.4 7.4 0 0 0-.3 1.5h10.2A6.1 6.1 0 0 0 50 30a4.7 4.7 0 0 0-3.6-1.3z"/></svg>