<svg xmlns="http://www.w3.org/2000/svg" width="64" height="64" viewBox="0 0 64 64"><path fill-rule="evenodd" d="M9.6 0h44.8A9.6 9.6 0 0 1 64 9.6v44.8a9.6 9.6 0 0 1-9.6 9.6H9.6A9.6 9.6 0 0 1 0 54.4V9.6A9.6 9.6 0 0 1 9.6 0z"/><path fill="#fff" d="M32 12.9h9.4a12.9 12.9 0 0 1 4.3.8 7.7 7.7 0 0 1 4.4 4.4 12.9 12.9 0 0 1 .8 4.3c.1 2.5.1 3.2.1 9.4s0 6.9-.1 9.4a12.9 12.9 0 0 1-.8 4.3 7.7 7.7 0 0 1-4.4 4.4 12.9 12.9 0 0 1-4.3.8H22.6a12.9 12.9 0 0 1-4.3-.8 7.7 7.7 0 0 1-4.4-4.4 12.9 12.9 0 0 1-.8-4.3c-.1-2.5-.1-3.2-.1-9.4s0-6.9.1-9.4a12.9 12.9 0 0 1 .8-4.3 7.7 7.7 0 0 1 4.4-4.4 12.9 12.9 0 0 1 4.3-.8H32m0-4.2h-9.6a17.1 17.1 0 0 0-5.6 1.3 11.9 11.9 0 0 0-6.8 6.8 17.1 17.1 0 0 0-1.1 5.6c-.1 2.5-.1 3.3-.1 9.6s0 7.1.1 9.6a17.1 17.1 0 0 0 1.1 5.6 11.9 11.9 0 0 0 6.8 6.8 17.1 17.1 0 0 0 5.6 1.1h19.2a17.1 17.1 0 0 0 5.6-1.1 11.9 11.9 0 0 0 6.8-6.8 17.1 17.1 0 0 0 1.1-5.6c.1-2.5.1-3.3.1-9.6s0-7.1-.1-9.6a17.1 17.1 0 0 0-1.1-5.6 11.9 11.9 0 0 0-6.8-6.8 17.1 17.1 0 0 0-5.6-1.1z"/><path fill="#fff" d="M32 20.1A11.9 11.9 0 1 0 43.9 32 11.9 11.9 0 0 0 32 20.1zm0 19.7a7.7 7.7 0 1 1 7.7-7.8 7.7 7.7 0 0 1-7.7 7.7z"/><circle cx="44.4" cy="19.6" r="2.8" fill="#fff"/></svg>