<svg id="Jerr" xmlns="http://www.w3.org/2000/svg" width="3.2in" height="10in" viewBox="0 0 227.5 720.1"><title>Artboard 1</title><circle id="Hat" cx="127.8" cy="72.4" r="72.4"/><path d="M153.6,115.7a7.1,7.1,0,0,0,7.7-6.1c.4-2.5,5.7-11.9,6.6-14s2.7-7.9-.8-11.3-7.8,2.8-7.8,2.8h0c-.4,6.9-2.7,16.8-4.3,22.8-.5,1.9-1,3.9-1.4,5.9" fill="#d1c0b2"/><path d="M98,111.7c-5.2-.8-6.8-4.8-6.8-7.1S87.4,93.1,86.9,91s-1.4-7.5,2.7-9.6,7.4,4.1,7.4,4.1h0c-.7,6.1,0,15.2.6,20.8.2,1.8.4,3.6.5,5.4" fill="#d1c0b2"/><path d="M6.1,356.7c-4.4,5.2-7.2,15.3-7.8,20.4-.4,3.5.5,10.4,1.7,11.6s6.1,10.8,7.2,11.5a1.7,1.7,0,0,0,2.8-1.2.2.2,0,0,1,.3-.2c.3.1.9.5,2.1,2s3.6-1.2,2.5-2.5a4,4,0,0,1-1-2.2h.1c.7.5,3.7,2.4,5.1,2.3s2.6-1.8.9-3.3-4.6-5.1-4.8-6.6.3-2.6.1-4.7.9-2.6,1.4-3.5.5-3.6,1-4.3,3-1.2,2.9,1.8-5,8.5-3.4,11.8,3.7,2.6,4.1,1.4a23.5,23.5,0,0,0,.7-3.1l.2-.4,2-2.8a1.4,1.4,0,0,0,.2-.7,102.8,102.8,0,0,1,1.6-10.6c.9-3.8-1.1-11.7-1.4-14" fill="#e2cfbf"/><path id="White" d="M112.9,174.4c-16-2.2-18.2-15.9-18.2-15.9s-.5-9.9,7.3-11.4a55.5,55.5,0,0,0,.2-10.3s-.3-6-.3-10.3,21.4,10.3,21.4,10.3l-2.5,37.7h-7.8" fill="#d1c0b2"/><path d="M7.8,351.5s-2.3,1.8-3.8,3.3c1.9,2.9,11.6,10.4,21.5,13.2,4.8-4.4,5.6-7.4,5.6-7.4Z" fill="#f8f8f8"/><path id="Purple" d="M126.5,208.5s-9.3,49.9-16.3,104.5c0,0-7.2-28.1-15.6-154.5,0,0-.5-9.9,7.3-11.4a55.5,55.5,0,0,0,.2-10.3,17.7,17.7,0,0,0-9.8,12.6c-9.9,2.9-29.1,2.7-38.7,12.3s-12.6,8.7-15.6,29.2-7,69.7-9.9,85.4S16.1,333,6.9,349.6c1.3,3.4,4.7,11.6,33.5,13.1,7.4-13.4,22.8-37.2,25.6-58.8-1.7,26.5,2.8,16.1-5.7,76.1-2.4,18,7.6,49.9,10.2,56.1,6.1,1.2,10.9,2.4,10.9,2.4l12.8,12.1s8.8-9.9,17.7-60.1c3.5,26.7,5.9,44.2,12.5,60.1,10.6-.9,20.1-2.8,42.1-1.4s32.9-10.9,32.9-10.9,7.6-22.7,4.5-53.2c3.8-25.1,3.1-18.2-2.8-38.8,0-20.6.2-36.7.2-36.7s27.9-11.2,26.1-42.6-10-65.4-11.2-72.8-4.9-35.8-30.7-41.4-33.7-8.9-33.7-8.9l-21.5,9.5-2.6,47.8Z" fill="#53356e"/><path d="M126.5,208.5l21.1-61.8s9.6,8.7,11.3,15.5,6.2,26.2,3.1,31.8-35.9,110.9-51.4,133.4a31.7,31.7,0,0,1-.4-14.5c6.9-54.5,16.3-104.5,16.3-104.5" fill="#3c2151"/><path id="Purple-2" data-name="Purple" d="M110.2,313S103,284.9,94.7,158.5c0,0-.5-9.9,7.3-11.4a55.5,55.5,0,0,0,.2-10.3,17.7,17.7,0,0,0-9.8,12.6S77.5,189.9,75.2,205c7.8,5.3,9.8,6.9,9.8,6.9l-8,19.4s16.1,81.9,35.9,120.3c-2.3-18.4-2.7-38.5-2.7-38.5" fill="#3c2151"/><path d="M105,45.3S94.6,74.5,96.2,96.7s2.2,31.6,14.4,40,21.5,3.5,21.5,3.5,17.2-1.8,22.7-27.4,8.8-37.7,8.8-37.7l-10.2-19L145,48.4A58.1,58.1,0,0,0,105,45.3Z" fill="#e2cfbf"/><path id="Purple-3" data-name="Purple" d="M129.5,450l6.4-.7" fill="#53356e"/><path id="Purple-4" data-name="Purple" d="M129.5,450c.3-1.7-3.4.4-5.1.5-6.6-15.8-9-33.4-12.5-60.1-9,50.1-17.7,60.1-17.7,60.1L81.4,438.4s-4.7-1.2-10.9-2.4c0,0,15.2,72.1,13.3,82.6-2.6,14.7,5.5,38.3,10.3,57.1a114.4,114.4,0,0,0,7.7,21.3l11.9,4.5,10.6-11s-3.9-36.7-1-57.2S125.8,470.9,129.5,450Z"/><path id="Purple-5" data-name="Purple" d="M124.4,590.6l-10.6,11L101.9,597s2.9,29.3,0,46,3.6,41.6,8.4,46.4c2.5,2.5,8.1,1.2,9.3,0S131.7,677,131.7,664s-2.2-13.5-2.2-33.1S124.4,590.6,124.4,590.6Z" fill="#1a1c1c"/><path d="M133.4,77.8c2.6-.9,16.7-2.2,23,5.4-6.2-1-14.9-3.3-22.2,0a.5.5,0,0,1-.7-.5c-.1-1,0-1.8-.1-2.3S133.2,77.9,133.4,77.8Z"/><path d="M125.1,76.6c-2.7-1-17.6-6.2-25.3.9,6.7-1.2,16.7.3,24.1,4a.6.6,0,0,0,.8-.4c.2-1,.3-1.8.4-2.3S125.5,76.8,125.1,76.6Z"/><path d="M159.7,98.4a23.7,23.7,0,0,0,8.7-9s3.5-48.2-16.6-58.8c-17.8-9.3-31.6-5.4-31.6-5.4-9.6,3.7-13,6.6-16.8,10.4-14.1,14.1-16.6,37.8-18.8,50A32.1,32.1,0,0,1,96.2,96.7C94.6,74.5,105,45.3,105,45.3a55.5,55.5,0,0,1,19.5-2.1,20,20,0,0,1,14.9,8.5C146.4,61.6,157.9,80.4,159.7,98.4Z" fill="#2e251a"/><path id="Purple-6" data-name="Purple" d="M135.9,449.3a182.5,182.5,0,0,1,30.6-.2c15.9,1,25.9-5.1,30.3-8.6,0,0-7.7,48.1,0,77.3s16.7,53.4,6.9,88.1c-9.1,12.1-17.4,20.4-20.4,20.4-4.2-4.2-9.1-15.9-9.1-21.9,0-2.7.5-10.4.6-19.1a82.6,82.6,0,0,0-10.1-40.1C151.1,519.6,155.6,492.5,135.9,449.3Z"/><path id="Purple-7" data-name="Purple" d="M203.7,605.9c-9.1,12.1-17.4,20.4-20.4,20.4-4.2-4.2-9.1-15.9-9.1-21.9,0,0,5.1,43.6-9.7,72.4s-5.5,41.5-.8,43.1,24.7-2.1,32.7-30.1,7.1-37.5,5.9-43.9S202.1,612.3,203.7,605.9Z" fill="#1a1c1c"/><path id="White-2" data-name="White" d="M112.9,174.4v28a5.1,5.1,0,0,0,5.1,5.1h7.4a4.9,4.9,0,0,0,1.1,1.1s-9.3,49.9-16.3,104.5c0,0-7.2-28.1-15.6-154.5C94.7,158.5,96.9,172.2,112.9,174.4Z" fill="#f8f8f8"/><rect x="112.9" y="121.3" width="40.4" height="86.11" rx="5.1" ry="5.1"/><rect x="136" y="124" width="11.6" height="4.8" rx="2.4" ry="2.4" fill="#9b9da0"/><circle cx="145" cy="126.4" r="1.7"/><path d="M169.4,204.6a32.7,32.7,0,0,1-.5-3.6c-.7-8.3-3.7-29.9-4.4-32.4s-5-14.5-8.4-18.8-2.8,5.4-2.8,7.9,2.1,6.1,3.6,13.1a22,22,0,0,1-.8,12.2s-3.5-4.3-5.7-5.4-17.7-8.7-21.4-9.5-7,4.2-1.7,7.4S149,187.1,149,191s-3.6,3.7-8.6,1.4-15.2-4.2-21.4-5.9-5.7,5.9-.5,7.5,26.5,8.6,27.6,9.8-1.3,4.3-18.1,1.7c-5.2-.7-3.2,4.1,5.2,5.4s10.8-2.4,12.3,4.5c0,0,3.5,9.3,13.5,2.1S169.4,204.6,169.4,204.6Z" fill="#e2cfbf"/><path d="M202.7,308.5s-9.9.2-16.4-3.5-18.7-15.1-29-36.4-7.5-49.1-7.5-49.1l22-16.5s9.6,3.6,15.2,18.4,7.9,27.9,15.7,33.8l.2.2a17.1,17.1,0,0,0,18.4,1l4.8-2.7c.5,4.8,1,9.7,1.2,14.5,1.7,29.7-24.7,40.3-24.7,40.3" fill="#5b3c78"/></svg>