<svg xmlns="http://www.w3.org/2000/svg" width="3.3in" height="13.1in" viewBox="0 0 238.7 944"><title>Artboard 1</title><g id="Jeremy"><path d="M110.7,833.7s4.1,12.5,4.1,15.9-3.4,12.2-6.2,19.3-7.9,37.6-9.4,42.7-14.1,16.9-25.7,19.1c-9.6,1.8-12.3,1.4-15.8-3.2-5-6.6-5.8-18.4-3.2-27.1S73.9,870.3,75.2,836C96.2,832.8,110.7,833.7,110.7,833.7Z" fill="#15171b"/><path d="M159.2,105.7c4.2.4,6.1-3.2,6.4-5.6s4.6-10.8,5.3-12.8,2.2-7.3-.8-10.4-6.4,2.5-6.4,2.5h0c-.3,6.3-2.1,15.3-3.3,20.9-.4,1.8-.8,3.6-1.1,5.4" fill="#e2cfbf"/><path d="M92.6,103.8a7.1,7.1,0,0,1-7.7-6.2c-.4-2.6-5.6-12-6.5-14.2s-2.7-8,.9-11.4,7.8,2.8,7.8,2.8h0c.4,7,2.6,16.9,4.1,23.1.5,2,1,3.9,1.4,5.9" fill="#e2cfbf"/><path d="M169.1,840.7s-.1,7.3-1.8,11.2-1,13.6,0,20.1.8,38.9,2.8,44.9,2.3,16.4,15.9,22.9,18.5,3.9,21.8-1,8-11.9,8.7-20.1c1.3-14.1-4.1-25.1-5.7-32.3s-5.2-21.3-5.2-24-3.1-10.3-2.3-18.6S169.1,840.7,169.1,840.7Z" fill="#15171b"/><path id="Shirt" d="M96.1,132.9,91.2,136c-2.2,1.4-4.4,10.3-5.8,14.4-19,9-44.4,16.8-49.8,19.4C27.8,173.5,21,181.3,15.5,202l-3.3,12c-.8,2-2.1,8.6-2.1,8.6L5.6,238.3S3,246.4,4.6,252a10.3,10.3,0,0,0-2,6.4s-8.1,9.1,4.3,9.1a272.9,272.9,0,0,1,44.9,15.1c-4.9,28.5-2.6,50.4-5.3,58.3s-3.3,22.7-3.3,22.7-2,72.9,3.6,83.7c0,0,5.2,17,60.9,24.9,1.8-21.4,4.6-44.1,6.4-48.2,4.9,9.1,14.3,34,15.4,46.7,12.9-3.3,63.8-12,84.1-37.4,0,0-4.7-52.2-14.9-80.9l32.1-84.7a70.8,70.8,0,0,1,8-4.7c-1.3-4-4.7-26.5-8.8-56.1S212.8,173,212.8,173c-5.7-2.6-43.3-17.4-56.7-22.3a20.5,20.5,0,0,0-6.2-14.5s2.6,22.2-25.5,21.6S90,150.1,96.1,132.9Z" fill="#f8f8f8"/><g id="Black_Things" data-name="Black Things"><polygon points="124.4 307.3 118.3 316.1 125.2 309.8 134.5 311 124.4 307.3"/><polygon points="134.9 394.5 145.6 394.5 136.5 392.4 132.2 384.1 134.9 394.5"/><polygon points="169.3 421.1 172.2 409.1 168.9 416.3 164.3 409.8 169.3 421.1"/><polygon points="101.1 408.5 93 401.5 98.5 409 96.3 418.1 101.1 408.5"/><polygon points="83.7 370.3 77.1 361.8 81 370.3 77 378.7 83.7 370.3"/><polygon points="73.4 266.2 68.4 275.7 74.5 268.7 83.9 268.8 73.4 266.2"/><polygon points="102 299 106.8 289.5 100.8 296.6 91.5 296.6 102 299"/><polygon points="133 354.1 143.5 356.3 135 352.4 132.5 343.4 133 354.1"/><polygon points="188.5 336.8 189.2 326.1 186.5 335 178 338.8 188.5 336.8"/><polygon points="66.9 448.7 77.6 449.6 68.7 446.7 65.1 438.1 66.9 448.7"/><polygon points="192.9 434.1 203.6 434.9 194.7 432.1 191.1 423.5 192.9 434.1"/><polygon points="194.1 384.1 196.3 376.1 192.8 382.4 185.8 383.8 194.1 384.1"/><polygon points="74.4 171.2 74.7 160.5 72.3 169.5 63.9 173.6 74.4 171.2"/><polygon points="91.2 169.9 83.4 177.2 91.5 172.6 100.3 175.7 91.2 169.9"/><polygon points="26.4 255.4 15.6 255.7 24.8 257.5 29.4 265.7 26.4 255.4"/><polygon points="166.8 213.9 164.1 203.5 164.3 212.9 157.4 219.1 166.8 213.9"/><polygon points="114.4 238.1 119.5 230.4 113.9 235.4 106.8 232.7 114.4 238.1"/><polygon points="50.4 222.5 60.4 226.4 52.8 221.1 51.8 211.8 50.4 222.5"/><polygon points="35 200.1 34.3 189.4 32.8 198.6 24.7 203.4 35 200.1"/><polygon points="180.6 174.2 173.8 181.8 180.8 177.1 188.4 180.7 180.6 174.2"/><polygon points="141 215.8 132.2 213.3 138.4 217 137.1 224.2 141 215.8"/><polygon points="200 251.6 193.2 259.1 200.2 254.4 207.8 258 200 251.6"/><polygon points="184.1 310.1 193.9 307.3 185.5 307.6 180.9 300.5 184.1 310.1"/><polygon points="201.8 207.2 207.2 215 204.6 207.8 210.1 202.6 201.8 207.2"/><polygon points="79.3 194.2 74.7 202.5 79.9 197 87.1 199.6 79.3 194.2"/><polygon points="119.5 264.4 110.2 265.6 117.7 266.5 119.9 273.8 119.5 264.4"/><polygon points="133 247.9 138.8 256.3 135.8 248.4 141 241.8 133 247.9"/><polygon points="114.9 202.6 116 212.7 117.2 204.4 125 201.1 114.9 202.6"/><polyline points="4 247.3 9.3 248.8 12.4 239.1 7.9 246.3 4.1 246.2"/><polygon points="108.8 360.6 102.5 372.6 109.8 364.5 115.1 364.7 108.8 360.6"/><polygon points="139.6 454.7 152.9 452.3 142 451.4 138.9 447.1 139.6 454.7"/><polygon points="68.7 407.2 59.6 399.6 65 407.1 63.6 411.4 68.7 407.2"/><polygon points="65.9 319.9 61.5 325 64.2 324.4 65.8 327.1 65.9 319.9"/><polygon points="184.4 219.6 188.3 225.2 188.4 222.4 191.4 221.4 184.4 219.6"/><polygon points="145.8 183.8 140.7 188.3 143.5 188.1 144.8 190.9 145.8 183.8"/><polygon points="153.9 326.1 157.4 317.2 152.6 322.7 148.3 323.4 153.9 326.1"/><polygon points="160 260.2 169.3 265 163.5 259.1 162.7 254.2 160 260.2"/><polygon points="94.7 333.4 104.2 332.4 97.1 330.7 94.6 327.1 94.7 333.4"/><polygon points="133.1 422.1 141.4 426.7 136.6 421.2 136.5 416.8 133.1 422.1"/><polygon points="147.3 289.5 138.7 293.5 145.9 292.8 149.5 295.3 147.3 289.5"/><polygon points="187.4 274.8 187.4 284.4 189.8 277.5 193.6 275.3 187.4 274.8"/><polygon points="70.9 302.3 73.6 297.6 70.6 300.7 66.4 299.3 70.9 302.3"/><polygon points="161.9 379.4 167.2 378.4 162.9 378.1 161.3 374 161.9 379.4"/><polygon points="51.6 245.6 46.3 244.6 50.3 246.5 50.3 250.8 51.6 245.6"/><polygon points="54.3 360.5 52.2 365.5 54.9 362.1 59.2 363 54.3 360.5"/><polygon points="88.2 238.4 84.2 232 86.1 237.8 81.6 242 88.2 238.4"/><polygon points="225.1 230.2 217.6 230.9 223.6 231.8 225.3 237.7 225.1 230.2"/></g><path id="Coller" d="M124.3,157.8c-28.1-.6-34.3-7.7-28.2-24.9L91.2,136c-2.2,1.4-4.4,10.3-5.8,14.4,0,0,.3,15,13.4,28.1,11-8.3,25.6-20.6,25.6-20.6" fill="#ededee"/><path id="Coller-2" data-name="Coller" d="M124.3,157.8c28.1.6,25.5-21.6,25.5-21.6a20.6,20.6,0,0,1,5.8,10.6c.5,2.4,1.1,4.8,1.8,7.2a3.8,3.8,0,0,1,.1,2c-.5,1.5-7.2,17.8-24.3,20.1C131.8,169.4,124.3,157.8,124.3,157.8Z" fill="#ededee"/><path d="M149.8,136.2s2.6,22.2-25.5,21.6S90,150.1,96.1,132.9c0,0,2.3-5.4-.1-16.3,24,1.1,55,4.5,55,4.5A59.4,59.4,0,0,0,149.8,136.2Z" fill="#d1c0b2"/><polygon points="96.5 162.9 97.5 168.7 97.8 163.6 101.9 160.5 96.5 162.9"/><polygon points="89.4 144.4 91.3 147.1 90.2 144.5 91.5 142 89.4 144.4"/><polygon points="150 157.5 156.1 153.3 151 155.2 148.7 150.3 150 157.5"/><path d="M88.3,84.5c2.2,10.3,4.6,29.7,7.4,35s7.1,26.8,28.9,26.8S155.2,122,155.9,119s6.1-23.8,6.4-25.7,4.1-19.3,3-25.9.5-26.6-14.3-29.3-23.5,2.1-33.4,2.1-23.4,4.3-26.5,7.3S83.1,59.4,88.3,84.5Z" fill="#e2cfbf"/><path d="M213.5,432.7c-22.7,26.5-71.2,34.2-84.1,37.4-1.1-12.7-10.5-37.6-15.4-46.7-1.8,4.1-4.6,26.8-6.4,48.2-55.7-7.9-60.9-24.9-60.9-24.9s-9.1,64.1,10.8,152.9c4.7,19.1,4.4,60.3.3,90.8S74.4,797.2,74.4,833.7c0,8.6,29.5,9.4,36.3,0,0-12-2.9-93.7-1.6-155.6,0-28.5,8.2-42,18.5-159.4,0-8.4,7.8-3.6,12.5,19.3s12.3,95.5,20.6,113.2S181.1,722.6,169,837c-2.2,20.9,35.7,13.6,35.7,3.5s16.2-86,16.2-131-8.8-65.2-3.3-115.7S226,458.7,213.5,432.7Z"/><path d="M6.9,266.9s2.5,52.3,3.3,59.5-.7,12.1,10.2,19S43.1,363,43.1,363s.7-14.8,3.3-22.7.4-29.8,5.3-58.3A272.9,272.9,0,0,0,6.9,266.9Z" fill="#e2cfbf"/><path d="M135.9,77.6c2.6-.9,16.3-5.2,22.6,2.3-5.8-2.9-14.9-2.2-22.2,1.1a.5.5,0,0,1-.7-.5c-.1-1-.1-1.8-.1-2.3A.7.7,0,0,1,135.9,77.6Z" fill="#2a1f1c"/><path d="M120.3,76.5c-2.7-1.1-16.8-6.4-24.5.7,6.6-2.5,16.3-1.1,23.6,2.6a.6.6,0,0,0,.8-.4c.2-1,.3-1.8.4-2.3A.7.7,0,0,0,120.3,76.5Z" fill="#2a1f1c"/><path d="M89.4,90S80,60.7,79,47.3,97.3,6.8,109.6,2.7s37.6-4.6,48.9,6.7,13.2,50.1,9.2,64.1-5.3,19.8-5.3,19.8,5.7-35.8-6.3-45.8c-9.1-7.6-26-12.1-38.4.3s-16.1,4.5-21.8,8.3S89.4,90,89.4,90Z" fill="#15171b"/></g><g id="Arm_Phone" data-name="Arm+Phone"><rect x="103.9" y="140.2" width="43.5" height="92.84" rx="5.1" ry="5.1"/><rect x="128.8" y="143.1" width="12.5" height="5.18" rx="2.6" ry="2.6" fill="#9b9da0"/><circle cx="138.5" cy="145.7" r="1.8"/><circle cx="134.8" cy="145.7" r="0.4"/><path d="M132.1,145.7a1,1,0,0,0-2,0Z" fill="#f7f3b8"/><path d="M130.1,145.7a1,1,0,1,0,2,0Z" fill="#f8d8b7"/><path d="M150.6,264.8c-12.4-6.9-11.2-20.3-11.6-22.2-1.6-7.5-4.1-3.5-13.2-4.9s-11.3-6.6-5.6-5.8c18.2,2.8,20.8-.6,19.6-1.8s-24.3-8.7-29.8-10.5-6.1-9.9.6-8.1,17.7,3.8,23.1,6.3,9.3,2.6,9.3-1.5-17.6-13.1-23.3-16.6-2.2-8.8,1.8-8,20.8,9.1,23.1,10.2,6.1,5.8,6.1,5.8a23.7,23.7,0,0,0,.8-13.1c-1.6-7.5-3.9-11.4-3.9-14.1s-.8-13.2,3-8.5,8.3,17.5,9.1,20.2,4,25.9,4.8,34.9,7.2,28.8,29.6,54.4c15.9-8,34.3-14.4,36.8-14.4,1,5.4-.9,66.4-9,75.9s-17.9,14.1-23.1,8.8S156.6,288,150.6,264.8Z" fill="#e2cfbf"/></g></svg>