<svg xmlns="http://www.w3.org/2000/svg" width="64" height="64" viewBox="0 0 64 64"><path fill-rule="evenodd" d="M9.6 0h44.8A9.6 9.6 0 0 1 64 9.6v44.8a9.6 9.6 0 0 1-9.6 9.6H9.6A9.6 9.6 0 0 1 0 54.4V9.6A9.6 9.6 0 0 1 9.6 0z"/><path fill="#fff" d="M24.9 50.6c16.4 0 25.3-13.6 25.3-25.3v-1.2a18.1 18.1 0 0 0 4.4-4.6 17.8 17.8 0 0 1-5.1 1.4 8.9 8.9 0 0 0 4-4.9 17.8 17.8 0 0 1-5.7 2.2 8.9 8.9 0 0 0-15.2 8.1A25.3 25.3 0 0 1 14.3 17a8.9 8.9 0 0 0 2.8 11.9 8.8 8.8 0 0 1-4-1.1 8.9 8.9 0 0 0 7.1 8.7 8.9 8.9 0 0 1-2.3.3l-1.7-.2a8.9 8.9 0 0 0 8.3 6.2 17.9 17.9 0 0 1-11.1 3.8h-2.1a25.2 25.2 0 0 0 13.7 4"/></svg>